<svg xmlns="http://www.w3.org/2000/svg" xmlns:xlink="http://www.w3.org/1999/xlink" id="Layer_1" x="0" y="0" version="1.1" viewBox="0 0 64 64" style="enable-background:new 0 0 64 64" xml:space="preserve"><style type="text/css">.st0{fill:#ffcb29}</style><path d="M48,32.7v-1.4c0-1.4-1.1-2.5-2.5-2.5h-7.8c-1.4,0-2.5-1.1-2.5-2.5v-7.8c0-1.4-1.1-2.5-2.5-2.5h-1.4	c-1.4,0-2.5,1.1-2.5,2.5v7.8c0,1.4-1.1,2.5-2.5,2.5h-7.8c-1.4,0-2.5,1.1-2.5,2.5v1.4c0,1.4,1.1,2.5,2.5,2.5h7.8	c1.4,0,2.5,1.1,2.5,2.5v7.8c0,1.4,1.1,2.5,2.5,2.5h1.4c1.4,0,2.5-1.1,2.5-2.5v-7.8c0-1.4,1.1-2.5,2.5-2.5h7.8	C46.9,35.2,48,34.1,48,32.7z" class="st0"/></svg>