<svg xmlns="http://www.w3.org/2000/svg" xmlns:xlink="http://www.w3.org/1999/xlink" id="Layer_1" x="0" y="0" version="1.1" viewBox="0 0 64 64" style="enable-background:new 0 0 64 64" xml:space="preserve"><style type="text/css">.st0{fill:none}.st1{fill:#ffcb29}</style><path d="M0,0h64v64H0V0z" class="st0"/><path d="M29.1,45.6l27.4-11.8c1-0.4,1.5-1.6,1.1-2.6c-0.2-0.5-0.6-0.9-1.1-1.1L29.1,18.4c-1-0.4-2.2,0-2.6,1	c-0.1,0.3-0.2,0.5-0.2,0.8V27c0,1,0.7,1.9,1.7,2l15.4,2c0.6,0,1,0.4,1,1s-0.4,1-1,1l-15.5,2c-1,0.1-1.7,1-1.7,2v6.7c0,1.1,0.9,2,2,2	C28.6,45.8,28.9,45.7,29.1,45.6z" class="st1"/><path d="M22.3,28.4c-1.6-0.7-3-0.4-4.7-0.6c-1.8-0.4-3.5-1.1-5.1-2.1c-0.7-0.4-1.3,1.6,0.5,3.2c1.5,1.2-6.2,1.1-6.2,3.8	c0,1.8,5.8,1,6.8,2.4c0.6,0.9,0.2,1.4-0.8,1.6c-1,0.2-0.9,1.2-0.3,1.3s2,0.3,5.6-0.1c1.6-0.1,3.2-0.5,4.7-1.1c0.9-0.5,2-1.4,2.1-4.2	v-0.1C25,30.8,23.9,29.2,22.3,28.4z M23.1,31c-2.5-1.4-3.3,1-5.2,0.3C16.6,31,15.5,30,15,28.7c-0.1-0.2,0-0.4,0.3-0.2	c1.3,0.8,2.9,1.1,4.5,0.8c2.3-0.2,3.2,0.5,3.7,1.2C23.8,30.8,23.4,31.2,23.1,31z" class="st1"/></svg>